<?xml version="1.0" encoding="UTF-8" standalone="no"?>
<!-- Created with Inkscape (http://www.inkscape.org/) -->

<svg
   xmlns:dc="http://purl.org/dc/elements/1.1/"
   xmlns:cc="http://creativecommons.org/ns#"
   xmlns:rdf="http://www.w3.org/1999/02/22-rdf-syntax-ns#"
   xmlns:svg="http://www.w3.org/2000/svg"
   xmlns="http://www.w3.org/2000/svg"
   xmlns:xlink="http://www.w3.org/1999/xlink"
   xmlns:sodipodi="http://sodipodi.sourceforge.net/DTD/sodipodi-0.dtd"
   xmlns:inkscape="http://www.inkscape.org/namespaces/inkscape"
   width="78.892418mm"
   height="15.88773mm"
   viewBox="0 0 78.892418 15.88773"
   version="1.1"
   id="svg8"
   inkscape:version="0.92.3 (2405546, 2018-03-11)"
   sodipodi:docname="logo.svg"
   inkscape:export-filename="/home/bryan/Documentos/Recursos/LogoOficialECUADteam.png"
   inkscape:export-xdpi="1083"
   inkscape:export-ydpi="1083">
  <defs
     id="defs2">
    <linearGradient
       inkscape:collect="always"
       id="linearGradient839">
      <stop
         style="stop-color:#8e2de2;stop-opacity:1"
         offset="0"
         id="stop835" />
      <stop
         style="stop-color:#2a7fff;stop-opacity:1"
         offset="1"
         id="stop837" />
    </linearGradient>
    <linearGradient
       inkscape:collect="always"
       id="linearGradient831">
      <stop
         style="stop-color:#2a7fff;stop-opacity:0.94117647"
         offset="0"
         id="stop827" />
      <stop
         style="stop-color:#8e2de2;stop-opacity:1"
         offset="1"
         id="stop829" />
    </linearGradient>
    <linearGradient
       inkscape:collect="always"
       xlink:href="#linearGradient831"
       id="linearGradient833"
       x1="29.127512"
       y1="17.197079"
       x2="111.69852"
       y2="182.33908"
       gradientUnits="userSpaceOnUse" />
    <linearGradient
       inkscape:collect="always"
       xlink:href="#linearGradient839"
       id="linearGradient841"
       x1="87.3125"
       y1="220.27084"
       x2="87.3125"
       y2="213.65625"
       gradientUnits="userSpaceOnUse" />
  </defs>
  <sodipodi:namedview
     id="base"
     pagecolor="#ffffff"
     bordercolor="#666666"
     borderopacity="1.0"
     inkscape:pageopacity="0.0"
     inkscape:pageshadow="2"
     inkscape:zoom="2.8"
     inkscape:cx="53.213069"
     inkscape:cy="-23.231759"
     inkscape:document-units="mm"
     inkscape:current-layer="layer1"
     showgrid="true"
     width="180mm"
     inkscape:window-width="1280"
     inkscape:window-height="952"
     inkscape:window-x="0"
     inkscape:window-y="0"
     inkscape:window-maximized="1"
     showguides="false"
     fit-margin-top="0"
     fit-margin-left="0"
     fit-margin-right="0"
     fit-margin-bottom="0">
    <inkscape:grid
       type="xygrid"
       id="grid15"
       originx="-43.944683"
       originy="-72.139185" />
  </sodipodi:namedview>
  <metadata
     id="metadata5">
    <rdf:RDF>
      <cc:Work
         rdf:about="">
        <dc:format>image/svg+xml</dc:format>
        <dc:type
           rdf:resource="http://purl.org/dc/dcmitype/StillImage" />
        <dc:title />
      </cc:Work>
    </rdf:RDF>
  </metadata>
  <g
     inkscape:label="Capa 1"
     inkscape:groupmode="layer"
     id="layer1"
     transform="translate(-43.944681,-208.97309)">
    <text
       xml:space="preserve"
       style="font-style:normal;font-weight:normal;font-size:6.3499999px;line-height:1.25;font-family:sans-serif;letter-spacing:0px;word-spacing:0px;fill:url(#linearGradient841);fill-opacity:1;stroke:none;stroke-width:0.26458332"
       x="61.113949"
       y="220.16605"
       id="text12"><tspan
         sodipodi:role="line"
         id="tspan10"
         x="61.113949"
         y="220.16605"
         style="font-style:normal;font-variant:normal;font-weight:normal;font-stretch:normal;font-size:8.46666622px;font-family:Tumbly;-inkscape-font-specification:Tumbly;fill:url(#linearGradient841);stroke-width:0.26458332;fill-opacity:1">ECUADteam</tspan></text>
    <g
       transform="matrix(0.09612939,0,0,0.09612939,40.856238,208.03436)"
       id="layer1-3"
       inkscape:label="Capa 1"
       style="fill:#2a7fff">
      <g
         id="g880"
         style="fill:#2a7fff">
        <path
           inkscape:connector-curvature="0"
           id="path884"
           d="m 103.03881,174.69094 c -0.1236,-0.19997 0.018,-0.25911 0.33195,-0.13864 0.61116,0.23452 0.72298,0.48738 0.21554,0.48738 -0.18258,0 -0.42895,-0.15693 -0.54749,-0.34874 z m 3.4207,-30.4103 c -0.0395,-4.40268 0.0473,-8.07879 0.19277,-8.16913 0.14552,-0.0903 0.2236,2.24185 0.17351,5.18265 -0.17031,9.99819 -0.29432,11.00929 -0.36628,2.98648 z m -5.71638,-32.84664 0.17626,-18.41515 0.0916,18.14718 c 0.0504,9.98094 -0.029,18.26776 -0.17626,18.41515 -0.14731,0.14739 -0.18851,-8.01884 -0.0916,-18.14718 z m 5.79899,8.74874 c -1.9e-4,-5.23875 0.0489,-7.43105 0.1091,-4.87179 0.0602,2.55927 0.0603,6.84552 3.4e-4,9.525 -0.06,2.67949 -0.10926,0.58554 -0.10944,-4.65321 z m -42.678523,-5.20347 c -0.09274,-0.24254 -0.127395,-10.04535 -0.07701,-21.784031 l 0.09161,-21.343055 0.176276,21.784083 c 0.09695,11.981243 0.131608,21.784063 0.07701,21.784023 -0.0546,-3e-5 -0.175147,-0.19849 -0.267893,-0.44102 z M 142.99381,93.807298 c 0.0515,-11.867843 0.21024,-21.694574 0.35278,-21.837177 0.14254,-0.142607 0.21704,9.450772 0.16555,21.318615 -0.0515,11.867844 -0.21024,21.694574 -0.35278,21.837174 -0.14254,0.14261 -0.21704,-9.45077 -0.16555,-21.318612 z m -73.483729,-0.43567 c 6e-5,-10.089445 0.0452,-14.166123 0.100326,-9.059288 0.05512,5.10684 0.05507,13.36184 -1.09e-4,18.34444 -0.05518,4.98261 -0.100277,0.80429 -0.100217,-9.285152 z m 68.086009,0.176389 c 0,-9.992431 0.0452,-14.080243 0.10037,-9.084028 0.0552,4.996215 0.0552,13.17184 0,18.168051 -0.0552,4.99622 -0.10037,0.90841 -0.10037,-9.084023 z"
           style="fill:#2a7fff;fill-opacity:1;stroke-width:0.35277778" />
        <path
           inkscape:connector-curvature="0"
           id="path882"
           d="M 67.744294,154.12404 32.127977,133.56118 V 92.136415 50.711654 L 67.405754,30.331052 C 86.808532,19.121721 102.93101,9.8675829 103.23348,9.7663007 c 0.32394,-0.1084682 15.18481,8.2645213 36.15973,20.3732953 l 35.60977,20.557443 v 41.436572 41.436579 l -35.60297,20.55835 c -19.58162,11.3071 -35.70116,20.55836 -35.82118,20.55836 -0.12002,0 -16.245559,-9.25328 -35.834536,-20.56286 z m 32.914516,-2.74328 -0.0919,-15.19225 L 82.39881,125.69518 64.230754,115.20185 64.054365,93.528261 63.877976,71.854674 50.825199,64.563266 37.772421,57.271857 37.67568,93.666187 c -0.09171,34.501793 -0.06419,36.418993 0.529166,36.868613 0.850244,0.64427 61.939644,35.96171 62.277574,36.00436 0.14758,0.0186 0.22696,-6.80266 0.17639,-15.1584 z m 21.04902,-30.38187 c 7.77524,-4.48463 14.57337,-8.45838 15.10695,-8.83056 l 0.97014,-0.67669 V 93.523996 c 0,-12.234891 -0.11738,-17.967646 -0.36788,-17.967646 -0.25213,0 -29.69616,16.455161 -30.55032,17.073425 -0.0276,0.01997 -0.16702,8.355785 -0.30986,18.524055 -0.24917,17.73746 -0.23386,18.47783 0.37722,18.24334 0.35031,-0.13443 6.9985,-3.91365 14.77375,-8.39828 z m -0.77955,-42.708258 c 7.31823,-4.123231 13.30414,-7.576157 13.30202,-7.673171 -0.004,-0.205539 -29.85947,-17.413008 -30.47335,-17.563874 -0.63168,-0.15524 -30.616282,17.266289 -30.285951,17.596619 0.159283,0.159283 7.107269,4.091273 15.439972,8.737759 l 15.150369,8.448156 1.78054,-1.024354 c 0.9793,-0.563393 7.76818,-4.397904 15.0864,-8.521135 z"
           style="fill:url(#linearGradient833);fill-opacity:1;stroke-width:0.35277778"
           sodipodi:nodetypes="scccscscccsssccccccccscccsccsscscsscscsccs" />
      </g>
    </g>
  </g>
</svg>
